<?xml version="1.0" standalone="yes"?>

<svg version="1.1" viewBox="0.0 0.0 244.3464566929134 135.09448818897638" fill="none" stroke="none" stroke-linecap="square" stroke-miterlimit="10" xmlns="http://www.w3.org/2000/svg" xmlns:xlink="http://www.w3.org/1999/xlink"><clipPath id="p.0"><path d="m0 0l244.34645 0l0 135.09448l-244.34645 0l0 -135.09448z" clip-rule="nonzero"></path></clipPath><g clip-path="url(#p.0)"><path fill="#000000" fill-opacity="0.0" d="m0 0l244.34645 0l0 135.09448l-244.34645 0z" fill-rule="nonzero"></path><path fill="#ffd966" d="m12.3254595 29.814034l0 0c0 -10.651625 8.634849 -19.286474 19.286476 -19.286474l180.51366 0c5.115097 0 10.020691 2.0319614 13.637604 5.648878c3.6169128 3.6169147 5.64888 8.522505 5.64888 13.637596l0 77.143585c0 10.651627 -8.634857 19.286476 -19.286484 19.286476l-180.51366 0c-10.651627 0 -19.286476 -8.63485 -19.286476 -19.286476z" fill-rule="nonzero"></path><path stroke="#000000" stroke-width="1.0" stroke-linejoin="round" stroke-linecap="butt" d="m12.3254595 29.814034l0 0c0 -10.651625 8.634849 -19.286474 19.286476 -19.286474l180.51366 0c5.115097 0 10.020691 2.0319614 13.637604 5.648878c3.6169128 3.6169147 5.64888 8.522505 5.64888 13.637596l0 77.143585c0 10.651627 -8.634857 19.286476 -19.286484 19.286476l-180.51366 0c-10.651627 0 -19.286476 -8.63485 -19.286476 -19.286476z" fill-rule="nonzero"></path><path fill="#000000" d="m152.42783 62.737534l0 0c0 -16.829464 13.812195 -30.472443 30.850388 -30.472443l0 0c8.182037 0 16.028946 3.2104797 21.81453 8.925171c5.785568 5.714691 9.035873 13.465477 9.035873 21.547272l0 0c0 16.82946 -13.812195 30.472443 -30.850403 30.472443l0 0c-17.038193 0 -30.850388 -13.6429825 -30.850388 -30.472443z" fill-rule="nonzero"></path><path stroke="#000000" stroke-width="1.0" stroke-linejoin="round" stroke-linecap="butt" d="m152.42783 62.737534l0 0c0 -16.829464 13.812195 -30.472443 30.850388 -30.472443l0 0c8.182037 0 16.028946 3.2104797 21.81453 8.925171c5.785568 5.714691 9.035873 13.465477 9.035873 21.547272l0 0c0 16.82946 -13.812195 30.472443 -30.850403 30.472443l0 0c-17.038193 0 -30.850388 -13.6429825 -30.850388 -30.472443z" fill-rule="nonzero"></path><path fill="#000000" d="m83.55774 126.24285c1.0078506 -1.8156509 3.4155655 -5.494339 6.0470657 -10.893883c2.6315002 -5.399536 6.312706 -14.546463 9.741951 -21.50335c3.429245 -6.9568863 4.9965515 -16.752304 10.833511 -20.23796c5.83696 -3.4856567 18.32312 -4.0012207 24.188248 -0.675972c5.8651276 3.3252487 7.489197 13.414688 11.002563 20.627472c3.5133667 7.212776 7.613968 17.297752 10.077621 22.649208c2.4636688 5.351448 3.920288 7.8829117 4.7043457 9.459496" fill-rule="nonzero"></path><path stroke="#000000" stroke-width="1.0" stroke-linejoin="round" stroke-linecap="butt" d="m83.55774 126.24285c1.0078506 -1.8156509 3.4155655 -5.494339 6.0470657 -10.893883c2.6315002 -5.399536 6.312706 -14.546463 9.741951 -21.50335c3.429245 -6.9568863 4.9965515 -16.752304 10.833511 -20.23796c5.83696 -3.4856567 18.32312 -4.0012207 24.188248 -0.675972c5.8651276 3.3252487 7.489197 13.414688 11.002563 20.627472c3.5133667 7.212776 7.613968 17.297752 10.077621 22.649208c2.4636688 5.351448 3.920288 7.8829117 4.7043457 9.459496" fill-rule="nonzero"></path><path fill="#000000" d="m31.391077 62.737534l0 0c0 -16.829464 13.812189 -30.472443 30.850393 -30.472443l0 0c8.18203 0 16.028954 3.2104797 21.814522 8.925171c5.785568 5.714691 9.035873 13.465477 9.035873 21.547272l0 0c0 16.82946 -13.812195 30.472443 -30.850395 30.472443l0 0c-17.038204 0 -30.850393 -13.6429825 -30.850393 -30.472443z" fill-rule="nonzero"></path><path stroke="#000000" stroke-width="1.0" stroke-linejoin="round" stroke-linecap="butt" d="m31.391077 62.737534l0 0c0 -16.829464 13.812189 -30.472443 30.850393 -30.472443l0 0c8.18203 0 16.028954 3.2104797 21.814522 8.925171c5.785568 5.714691 9.035873 13.465477 9.035873 21.547272l0 0c0 16.82946 -13.812195 30.472443 -30.850395 30.472443l0 0c-17.038204 0 -30.850393 -13.6429825 -30.850393 -30.472443z" fill-rule="nonzero"></path></g></svg>

